<svg width="50" height="50" xmlns="http://www.w3.org/2000/svg">
 <!-- Created with SVG-edit - http://svg-edit.googlecode.com/ -->
 <g>
  <title>Calque 1</title>
  <path fill="#FF0000" stroke="#ff0000" stroke-width="5" stroke-linejoin="null" stroke-linecap="null" d="m18.0112,15.2883c11.7689,0 13.064301,8.6714 13.064301,8.6714l6.231701,0l-6.263401,0c-1.684601,10.258699 -13.064301,8.619699 -13.064301,8.619699c5.440901,-8.671299 0.0317,-17.2911 0.0317,-17.2911l0,0zm-2.0562,0.671c3.9541,8.103601 0,16.0523 0,16.0523m-4.555099,-3.992701l5.788799,0m-5.788799,-8.136801l5.788799,0m-6.4134,-0.5532l0.6217,0l0,1.0144l-0.6217,0l0,-1.0144zm0.0053,8.148401l0.6217,0l0,1.014399l-0.6217,0l0,-1.014399zm26.518301,-4.0266l0.621601,0l0,1.014399l-0.621601,0l0,-1.014399z" id="svg_2"/>
 </g>
</svg>